<?xml version="1.0" encoding="UTF-8"?><svg id="Layer_1" xmlns="http://www.w3.org/2000/svg" viewBox="0 0 793.92 793.92" fill="#000"><path d="M397.28,98.62c100.25,0,200.51,0,300.76,.03,3.5,0,7.06,.11,10.5,.68,8.12,1.34,14.41,8.06,15.37,16.25,.39,3.32,.51,6.69,.51,10.04,.02,181.02,.02,362.04,0,543.06,0,3.35-.1,6.72-.52,10.04-1.11,8.88-8.1,15.6-17.06,16.48-3.25,.32-6.54,.45-9.81,.45-199.95,.02-399.89,.02-599.84,0-4.07,0-8.16,.09-12.16-.87-7.86-1.88-13.7-8.19-14.54-16.23-.49-4.67-.53-9.41-.53-14.12-.02-178.14-.02-356.29,0-534.43,0-4.55-.05-9.13,.45-13.64,1.12-10.14,8.52-16.94,18.68-17.53,2.55-.15,5.11-.22,7.67-.22,100.17-.01,200.35,0,300.52,0Zm.05,3.01c-100.34,0-200.68,0-301.02,.02-3.03,0-6.08,.11-9.08,.5-7.39,.95-13.21,7.01-13.85,14.4-.32,3.66-.46,7.34-.46,11.01-.02,179.75-.02,359.51,0,539.26,0,3.59,.14,7.19,.45,10.77,.68,7.81,6.86,13.97,14.67,14.69,3.02,.28,6.06,.43,9.09,.43,200.04,.02,400.08,.02,600.12,0,3.03,0,6.07-.15,9.09-.43,7.84-.72,13.96-6.83,14.69-14.67,.28-3.02,.44-6.06,.44-9.09,.02-180.87,.02-361.74,0-542.62,0-3.03-.14-6.07-.42-9.09-.71-7.74-6.42-13.72-14.11-14.68-2.92-.37-5.89-.47-8.84-.47-100.26-.02-200.52-.02-300.78-.02Z"/><path d="M276.87,341.95c.71-.57,1.44-1.13,2.13-1.72,5.75-4.84,11.55-9.62,18.08-13.38,2.47-1.43,5.1-2.69,7.81-3.59,5.37-1.78,10.47,1.18,11.81,6.64,.2,.83,.26,1.75,.14,2.59-1.13,7.86-3.39,15.43-6.01,22.91-5.32,15.17-12.02,29.75-18.92,44.25-.14,.29-.32,.56-.43,.86-.3,.82-.74,1.76,.22,2.37,.89,.56,1.86,.37,2.68-.29,.3-.24,.55-.57,.79-.89,11.44-15.13,24.25-29.06,37.47-42.63,9.76-10.02,19.84-19.7,30.58-28.67,6.81-5.69,13.77-11.2,21.68-15.31,2.95-1.54,6.11-2.78,9.3-3.72,4.72-1.39,7.57-.07,10.05,4.18,1.76,3.02,2.64,6.32,2.93,9.79,.19,2.31-.4,4.31-1.64,6.34-8.68,14.16-17.45,28.27-25.78,42.63-7.18,12.37-13.34,25.28-18.01,38.85-2.03,5.9-3.74,11.89-4.56,18.09-.2,1.48-.14,3.04,.09,4.52,.47,3.06,2.46,4.42,5.32,3.38,2.9-1.06,5.77-2.37,8.42-3.95,2.87-1.71,5.52-3.81,8.17-5.85,2.6-2,4.83-4.3,6.78-7.02,2.44-3.43,5.44-6.46,8.24-9.63,.75-.85,1.62-1.59,3.19-.73-.45,.75-.79,1.51-1.3,2.14-3.32,4.12-6.28,8.46-8.46,13.3-1.52,3.37-2.7,6.83-3.04,10.54-.03,.32-.08,.64-.1,.95-.51,7.08,2.95,10.86,10.05,11.01,3.63,.08,7.14-.73,10.63-1.58,11.45-2.76,21.5-8.41,31.07-15.05,12.12-8.42,23.02-18.24,33.21-28.89,9.02-9.42,17.4-19.37,24.92-30.04,.45-.64,.87-1.3,1.49-2.25-.8,.05-1.3,.06-1.79,.12-1.9,.22-3.8,.58-5.7,.67-2.95,.14-5.36-2.14-5.58-5.08-.13-1.75,.4-2.63,2.13-2.85,2.37-.3,4.77-.37,7.16-.49,2.39-.12,4.78-.23,7.18-.23,1.27,0,2.11-.49,2.74-1.54,2.49-4.18,5.17-8.26,7.46-12.54,3.72-6.99,6.99-14.22,8.85-21.94,1.57-6.51,1.93-13.14-.18-19.66-2.25-6.95-7.24-10.86-14.17-12.57-6.3-1.55-12.56-.89-18.77,.45-14.53,3.13-27.46,9.76-39.42,18.43-9.61,6.96-18.32,14.94-26.21,23.8-.93,1.04-1.53,2.09-1.67,3.56-.11,1.21-.63,2.52-1.36,3.5-2.14,2.9-4.6,5.52-7.62,7.56-2,1.35-3.11,1.11-4.18-1.09-1.21-2.49-1.5-4.9,.22-7.45,5.59-8.26,12.26-15.53,19.72-22.11,11.22-9.89,23.54-18.09,37.17-24.27,7.59-3.44,15.4-6.19,23.71-7.36,7.45-1.05,14.81-.99,22.01,1.55,8.75,3.09,14.15,9.22,16.57,18.11,1.36,5.02,1.34,10.12,.88,15.24-.77,8.48-3.86,16.3-7.24,23.97-1.83,4.15-4.22,8.06-6.35,12.08-.32,.61-.63,1.23-1.1,2.14h47.32c10.66-21.35,23.73-41.22,37.83-61.02-1.21-.13-1.74-.15-2.24-.24-.58-.11-1.15-.28-1.73-.42,.18-.56,.22-1.24,.57-1.67,1.1-1.37,2.27-2.69,3.49-3.94,5.48-5.59,10.98-11.16,16.49-16.72,1.28-1.29,2.14-1.32,3.55-.2,1.66,1.33,2.56,3.15,2.49,5.22-.03,.89-.78,1.87-1.42,2.61-6.74,7.7-13.08,15.72-19.13,23.97-9.36,12.77-18.03,25.98-25.72,39.82-1.98,3.56-3.8,7.2-5.67,10.82-.25,.47-.37,1.01-.62,1.69,1.3,0,2.39-.01,3.48,0,1.12,.01,2.25-.05,3.34,.11,1.43,.2,2.23,1.12,2.1,2.16-.13,1.07-1.1,1.8-2.45,1.82-2.47,.03-4.95,.04-7.43,.07-.39,0-.78,.08-1.41,.14-1.7,3.71-3.5,7.44-5.12,11.25-3.72,8.77-6.82,17.76-8.42,27.17-.59,3.45-.72,6.98-.82,10.49-.08,2.77,1.9,4.16,4.63,3.56,.67-.15,1.34-.36,2.32-.63,0,.76,.19,1.38-.03,1.75-1.42,2.45-3.66,4.25-6.62,1.87-2.31-1.85-3.82-4.14-4.29-7.21-.66-4.35-.25-8.63,.39-12.89,1.78-11.84,5.4-23.15,10.23-34.08,.13-.29,.25-.59,.35-.89,.02-.05-.06-.14-.16-.37-.44-.04-.97-.15-1.49-.14-8.79,.26-17.58,.43-26.36,.84-6.54,.31-13.07,.97-19.6,1.43-1.63,.11-2.72,.78-3.72,2.13-11.34,15.2-23.47,29.71-37.28,42.75-10.32,9.74-21.37,18.51-33.61,25.72-7.25,4.27-14.83,7.86-22.94,10.12-3.52,.98-7.17,1.61-10.8,2.06-3.93,.49-7.85-.06-11.55-1.49-7.07-2.73-10.48-9.09-8.93-15.79,.2-.84,.36-1.69,.64-3.05-1.07,.86-1.79,1.42-2.49,2-4.15,3.43-8.62,6.3-13.76,8.09-2.42,.84-4.24,.18-5.72-1.7-2.49-3.16-4.03-6.67-3.98-10.8,.07-5.24,1.08-10.32,2.49-15.33,3.86-13.74,9.65-26.71,15.99-39.45,8.32-16.75,17.42-33.06,27.5-48.82,.82-1.28,1.66-2.54,2.34-3.89,.46-.91,.79-1.93,.95-2.94,.52-3.21-.74-4.85-4-5.22-3.1-.36-6.05,.46-8.9,1.51-5.13,1.9-9.71,4.83-14.16,7.96-9.69,6.82-18.52,14.68-27.1,22.82-16.6,15.73-32.38,32.23-47.05,49.78-5.43,6.49-10.66,13.15-15.88,19.82-1.81,2.32-4.02,3.29-6.86,3.06-2.02-.16-2.68-1.13-2.06-3.06,.17-.52,.49-1,.74-1.49,8.03-15.44,15.88-30.98,22.74-46.99,4.18-9.77,8.03-19.66,10.87-29.92,.53-1.92,.94-3.88,1.39-5.83,.11-.46,.14-.95,.17-1.43,.19-3.93-1.68-5.66-5.55-5.12-3.22,.45-6.17,1.74-8.89,3.41-9.59,5.86-18.33,12.79-25.87,21.16-1,1.11-1.88,2.39-2.56,3.72-7.17,14.01-14.7,27.82-23.16,41.1-6.15,9.64-12.74,18.96-20.39,27.49-2.84,3.16-6.56,4.75-10.28,6.39-1.52,.67-2.22,.16-2.53-1.48-.53-2.83-.02-5.57,.89-8.25,2.14-6.34,5.57-12.02,9.27-17.53,10.46-15.56,22.38-29.92,35.54-43.26,1.51-1.54,2.95-3.18,4.61-4.54,2.68-2.21,4.25-5.12,5.69-8.17,6.24-13.26,11.47-26.88,14.71-41.2,.73-3.22,.99-6.48,.69-9.77-.42-4.66-2.96-6.99-7.65-7.23-5.38-.27-10.48,.99-15.47,2.76-9.71,3.45-18.47,8.71-26.9,14.53-10.4,7.18-20.36,14.93-29.4,23.8-5.61,5.5-10.9,11.29-14.18,18.54-1.04,2.3-1.65,4.82-2.22,7.29-.58,2.51,.51,4.39,2.83,5.45,2.56,1.17,5.2,2.03,8.09,1.76,.65-.06,1.32,.06,2.35,.12-1.46,2.07-3.38,2.22-5.08,2.48-2.56,.4-4.85-.37-6.73-2.32-3.76-3.91-4.56-8.44-3.11-13.51,1.83-6.37,5.55-11.65,9.73-16.63,9.28-11.03,20.28-20.13,32.17-28.17,8.8-5.96,17.9-11.45,27.73-15.57,3.44-1.44,7.06-2.49,10.64-3.59,6.57-2.02,12.08,.26,17.02,4.49,3.32,2.84,4.78,6.29,4.24,10.82-.94,7.84-3.04,15.35-5.65,22.73-2.13,6.02-4.54,11.94-6.82,17.9-.13,.35-.24,.71-.36,1.07,.09,.07,.18,.14,.27,.21Zm-13.57,18.32l-.55-.39c-1.15,1.08-2.33,2.13-3.45,3.24-7.5,7.35-13.95,15.57-20.18,23.98-5.42,7.32-10.58,14.83-14.59,23.02-1.65,3.36-2.95,6.89-4.26,10.4-.25,.68-.08,1.95,.4,2.37,.87,.75,1.76-.05,2.46-.74,.28-.28,.54-.59,.79-.9,1.38-1.66,2.8-3.28,4.12-4.99,11.22-14.59,20.91-30.18,30.09-46.09,1.86-3.22,3.45-6.6,5.17-9.91Z"/><path d="M293.89,493.81v19.09h-2.67v-41.06h2.61v18.9c1.9,.55,9.09,.67,12.62,.23v-19.13c1.05-.06,1.81-.1,2.54-.14,.49,1.86,.63,37.8,.16,41.21-.71,.04-1.46,.09-2.56,.16-.2-6.49,.04-12.83-.14-19.27h-12.57Z"/><path d="M606.4,492.39c0,3.99,.06,7.99-.03,11.98-.03,1.26-.28,2.56-.71,3.75-1.33,3.67-4.49,5.48-8.98,5.32-3.9-.14-6.71-2.22-7.76-5.95-.41-1.44-.66-2.98-.67-4.47-.07-7.03-.06-14.06,0-21.1,.01-1.42,.22-2.88,.58-4.25,1.08-4.05,3.78-6.08,8.01-6.19,5.75-.14,9.11,2.7,9.47,8.45,.26,4.14,.05,8.3,.05,12.46,.02,0,.03,0,.05,0Zm-15.36-.15c0,3.75-.07,7.51,.04,11.26,.04,1.33,.3,2.71,.77,3.95,.92,2.46,2.82,3.52,5.68,3.47,2.72-.05,4.75-1.34,5.49-3.79,.45-1.51,.73-3.12,.75-4.7,.08-6.71,.08-13.41,0-20.12-.02-1.57-.36-3.17-.78-4.69-.44-1.63-1.64-2.68-3.23-3.29-3.56-1.36-7.09,.23-8.23,3.84-.33,1.05-.45,2.19-.47,3.29-.06,3.59-.02,7.19-.02,10.78Z"/><path d="M390.79,492.31c0-3.68-.02-7.35,0-11.03,.02-2.43,.39-4.76,1.96-6.77,1.3-1.67,2.95-2.65,5.03-2.92,.55-.07,1.11-.1,1.67-.11,5.34-.1,8.4,2.39,9.27,7.66,.22,1.33,.29,2.7,.3,4.06,.03,6.15,.08,12.3-.03,18.45-.04,2.05-.31,4.15-.83,6.14-.69,2.63-2.5,4.43-5.17,5.18-6.41,1.82-11.72-1.45-12.12-7.97-.02-.32-.07-.64-.07-.96,0-3.91,0-7.83,0-11.74h-.01Zm15.42,.18v-9.82c0-.08,0-.16,0-.24-.11-1.19-.11-2.4-.35-3.57-.37-1.76-1.18-3.29-2.87-4.21-3.74-2.03-8.01-.26-9.09,3.85-.28,1.07-.44,2.2-.45,3.3-.04,7.11-.05,14.21,.01,21.32,.01,1.33,.29,2.7,.68,3.98,.73,2.41,2.62,3.68,5.23,3.8,2.62,.12,4.83-.71,5.85-3.24,.61-1.52,.88-3.24,.95-4.88,.14-3.43,.04-6.87,.04-10.3Z"/><path d="M192.74,471.88c3.64,0,7.08-.25,10.46,.07,3.87,.37,6.3,3.05,6.7,7.29,.3,3.17,.32,6.41,0,9.57-.45,4.5-3.47,7.02-8.11,7.22-2.05,.09-4.11,.01-6.42,.01v16.87h-2.63v-41.03Zm2.62,2.61c.04,6.41-.11,12.72,.11,19.1,2.28,0,4.28,.13,6.26-.03,3.07-.24,5.15-1.99,5.36-4.82,.23-3.17,.21-6.38,0-9.55-.18-2.61-1.8-4.43-4.07-4.65-2.43-.23-4.9-.05-7.65-.05Z"/><path d="M499.92,512.91h-2.81v-38.58h-8.2v-2.47h19.41v2.44h-8.4v38.62Z"/></svg>