<svg id="Ebene_3" data-name="Ebene 3" xmlns="http://www.w3.org/2000/svg" viewBox="0 0 595.28 595.28"><title>logo</title><path d="M132.19287,269.18408l-10.19141,45.5166h-3.10937l-9.67334-44.394v44.394h-4.66406V245.51855h4.31836l11.57373,56.313,12.17773-56.313h4.146v69.18213h-4.57764Z"/><path d="M156.28906,287.58057h-8.2915v27.12011h-4.75V287.58057h-4.146v-4.31836h4.146V253.11914a6.36961,6.36961,0,0,1,2.332-5.355,10.33654,10.33654,0,0,1,5.18213-2.15918,5.39455,5.39455,0,0,0,.69092-.043,5.639,5.639,0,0,1,.69091-.04346,10.68114,10.68114,0,0,1,1.29541.08643,6.10843,6.10843,0,0,1,1.38184.3457,9.55589,9.55589,0,0,1,4.23242,2.41846,6.27172,6.27172,0,0,1,1.89991,4.75v61.58154h-4.66407Zm-.73388-36.23194a4.59437,4.59437,0,0,0-1.68409-1.07959,2.79924,2.79924,0,0,0-.8208-.34521,3.41977,3.41977,0,0,0-.73388-.08643h-.38868a.86.86,0,0,0-.38867.08643,6.11874,6.11874,0,0,0-2.41845.86328,2.4356,2.4356,0,0,0-1.12305,2.2456v30.2295h8.2915v-30.2295A2.32177,2.32177,0,0,0,155.55518,251.34863Z"/><path d="M168.72607,271.86133v42.83935h-4.75048V245.51855h4.40478l8.63672,44.394v-44.394h4.66406v69.09571l-4.57763.08642Z"/><path d="M193.08105,314.87354a10.38159,10.38159,0,0,1-6.26171-2.11622,6.82377,6.82377,0,0,1-2.63428-5.74365V245.51855h4.57764v61.49512a3.02518,3.02518,0,0,0,1.12255,2.41846,4.708,4.708,0,0,0,2.50489,1.12256.68708.68708,0,0,0,.30224.08642h.56153A5.20528,5.20528,0,0,0,196.104,309.605a2.96133,2.96133,0,0,0,1.29541-2.50488V245.51855h4.57764V307.1001a6.203,6.203,0,0,1-1.98633,4.66406,11.49208,11.49208,0,0,1-4.31836,2.67725c-.46191.0581-.90722.12939-1.33886.21582a6.38453,6.38453,0,0,1-1.25245.12988Z"/><path d="M207.93506,287.58057h-4.23193v-4.31836h4.146V245.51855h16.23731v4.40528H212.59912v33.33838h11.83252v4.31836H212.59912v22.88769h11.83252v4.23242H207.93506Z"/><path d="M226.58984,245.51855h4.57764v64.94971h11.40039v4.23242h-15.978Z"/><path d="M274.95459,287.58057h-8.63672v27.12011h-4.57764V287.58057h-3.541v-4.31836h3.45459V245.51855h4.75049v37.74366h8.46435V245.51855h4.66358v69.18213h-4.57764Z"/><path d="M299.22363,287.58057h-8.2915v27.12011h-4.75V287.58057h-4.146v-4.31836h4.146V253.11914a6.36961,6.36961,0,0,1,2.332-5.355,10.33654,10.33654,0,0,1,5.18213-2.15918,5.39455,5.39455,0,0,0,.69092-.043,5.63907,5.63907,0,0,1,.69092-.04346,10.6814,10.6814,0,0,1,1.29541.08643,6.10848,6.10848,0,0,1,1.38183.3457,9.55481,9.55481,0,0,1,4.23291,2.41846,6.27137,6.27137,0,0,1,1.89942,4.75v61.58154h-4.66407Zm-.73388-36.23194a4.59437,4.59437,0,0,0-1.68409-1.07959,2.79924,2.79924,0,0,0-.8208-.34521,3.41977,3.41977,0,0,0-.73388-.08643h-.38868a.86.86,0,0,0-.38867.08643,6.11874,6.11874,0,0,0-2.41845.86328,2.4356,2.4356,0,0,0-1.12305,2.2456v30.2295h8.2915v-30.2295A2.32177,2.32177,0,0,0,298.48975,251.34863Z"/><path d="M332.99316,253.03271a2.82538,2.82538,0,0,0-1.12207-2.28857,5.06263,5.06263,0,0,0-2.67773-1.07959h-.43164a4.001,4.001,0,0,0-2.59082.90674,2.90611,2.90611,0,0,0-1.12305,2.375v61.58154h-4.83691V252.86035a2.6201,2.6201,0,0,0-1.46778-2.332,6.91074,6.91074,0,0,0-3.19628-.95019,3.61784,3.61784,0,0,0-2.46094.95019,2.98844,2.98844,0,0,0-1.08008,2.332v61.66748h-4.75V252.86035a6.70889,6.70889,0,0,1,2.54785-5.39844,8.98449,8.98449,0,0,1,5.916-2.11572,11.965,11.965,0,0,1,3.80078.60449,7.825,7.825,0,0,1,3.1084,1.89991,8.5429,8.5429,0,0,1,1.90039-1.29541,14.11244,14.11244,0,0,1,2.15918-.86377,11.70327,11.70327,0,0,1,1.38183-.25879,10.572,10.572,0,0,1,1.2959-.08643,8.94268,8.94268,0,0,1,5.83008,2.332,6.8327,6.8327,0,0,1,2.54785,5.26807v61.58154h-4.751Z"/><path d="M343.70313,287.58057h-4.23145v-4.31836h4.14551V245.51855h16.2373v4.40528h-11.4873v33.33838h11.833v4.31836h-11.833v22.88769h11.833v4.23242H343.70313Z"/><path d="M362.35742,245.51855h4.57813v64.94971h11.40039v4.23242H362.35742Z"/><path d="M178.64258,342.43359V324.71387h7.79687c8.48047.02539,8.48047,13.18847,0,13.18847h-3.26562v4.53125Zm7.77148-13.66992c-1.063-.02441-2.20215,0-3.24023,0v5.06348h3.24023C188.895,333.82715,189.04688,328.78906,186.41406,328.76367Z"/><path d="M210.9707,342.43359h-4.63232v-7.11328h-5.46826v7.11328h-4.63233V324.71387h4.63233v6.42968h5.46826v-6.42968h4.63232Z"/><path d="M214.41553,333.59961c0-12.25293,18.17578-12.25293,18.17578,0C232.59131,345.877,214.41553,345.877,214.41553,333.59961Zm13.543,0a4.45487,4.45487,0,1,0-8.88526,0A4.45487,4.45487,0,1,0,227.9585,333.59961Z"/><path d="M234.26416,328.76367v-4.0498h13.16357v4.0498h-4.3291v13.66992h-4.48047V328.76367Z"/><path d="M249.15088,333.59961c0-12.25293,18.17578-12.25293,18.17578,0C267.32666,345.877,249.15088,345.877,249.15088,333.59961Zm13.543,0a4.45487,4.45487,0,1,0-8.88526,0A4.45487,4.45487,0,1,0,262.69385,333.59961Z"/><path d="M278.74561,324.48633c3.56933.02539,7.29052,1.873,8.15087,6.27734h-4.45507a3.62591,3.62591,0,0,0-3.6958-2.126c-2.86084,0-4.40479,2.22753-4.40479,4.93652,0,2.93652,1.72119,4.86035,4.40479,4.86035,1.82226,0,2.98681-.48144,3.79687-2.17773H278.771V332.333h8.3789a12.89346,12.89346,0,0,1-.50635,5.18945c-1.26562,3.69629-4.63232,5.11426-7.89794,5.11426-4.50586,0-9.0625-3.0127-9.0879-9.0625A8.769,8.769,0,0,1,278.74561,324.48633Z"/><path d="M305.708,341.77539v.6582h-5.06348l-3.0376-5.21484h-2.35449v5.21484h-4.53125V324.71387h7.77149c6.96142.02539,8.22705,8.40429,3.74658,11.44238Zm-7.21533-13.01172c-1.063-.02441-2.17676,0-3.24024,0v4.37988h3.24024C300.94824,333.14355,301.0752,328.78906,298.49268,328.76367Z"/><path d="M319.4541,340.20605h-6.98633l-1.03808,2.22754H307v-.6582l7.97363-17.28906h1.94922l8,17.28906v.6582h-4.43066Zm-3.51855-8.55566-1.97461,4.65723h4Z"/><path d="M327.25293,342.43359V324.71387h7.79687c8.48047.02539,8.48047,13.18847,0,13.18847h-3.26562v4.53125Zm7.77148-13.66992c-1.06347-.02441-2.20214,0-3.24023,0v5.06348h3.24023C337.50488,333.82715,337.65723,328.78906,335.02441,328.76367Z"/><path d="M359.58105,342.43359h-4.63183v-7.11328h-5.46777v7.11328h-4.63282V324.71387h4.63282v6.42968h5.46777v-6.42968h4.63183Z"/><path d="M372.51855,342.43359h-4.48046v-7.44238l-5.94922-9.59375v-.68359h4.88574l3.21484,5.89843h.17774l3.21484-5.89843h4.91113v.68359l-5.97461,9.59375Z"/><polygon points="174.242 334.575 171.396 332.567 104.333 334.575 171.396 336.578 174.242 334.575"/><rect x="383.50586" y="245.54639" width="1" height="96.8877" fill="#1d1d1b"/><path d="M439.36952,342.17871a38.94483,38.94483,0,1,1,38.94536-38.94482A38.98868,38.98868,0,0,1,439.36952,342.17871Zm0-71.29718a32.35236,32.35236,0,1,0,32.35289,32.35236A32.389,32.389,0,0,0,439.36952,270.88153Z"/><path d="M439.3781,330.94555a27.71166,27.71166,0,1,1,27.71219-27.71166A27.74321,27.74321,0,0,1,439.3781,330.94555Zm0-54.32458a26.61292,26.61292,0,1,0,26.61345,26.61292A26.64371,26.64371,0,0,0,439.3781,276.621Z"/><path d="M439.3781,328.90847a25.78913,25.78913,0,1,1,25.78939-25.78886A25.81841,25.81841,0,0,1,439.3781,328.90847Zm0-50.4795a24.69038,24.69038,0,1,0,24.69065,24.69064A24.71869,24.71869,0,0,0,439.3781,278.429Z"/><path d="M453.125,253.18262H428.27344l6.52636-7.61524h11.79883Zm-22.67773-1h20.5039l-4.8125-5.61524h-10.8789Z"/><polygon points="497.892 342.238 496.892 342.238 496.892 264.571 478.666 264.571 463.504 253.183 429.36 253.183 429.36 252.183 463.838 252.183 479 263.571 497.892 263.571 497.892 342.238"/><polygon points="383.485 342.246 384.485 342.246 384.485 264.579 402.711 264.579 417.873 253.19 452.017 253.19 452.017 252.19 417.539 252.19 402.377 263.579 383.485 263.579 383.485 342.246"/></svg>