<svg id="logo-small" xmlns="http://www.w3.org/2000/svg" viewBox="0 0 183.77767 96.8877"><title>logo</title><path d="M38.69814,33.14625l-14.2697,63.731H20.07479L6.53048,34.718V96.8772H0V.0105H6.04643L22.25162,78.85822,39.30251.0105h5.8051V96.8772H38.69814Z"/><path d="M57.92028,58.90444H45.82741V96.8772H39.418V58.90444h-.0091V52.858h-.11191V.0105h6.65148V52.858H57.8V.0105h6.52979V96.8772H57.92028Z"/><rect x="69.39192" width="1" height="96.8877"/><path d="M125.25558,96.63232A38.94482,38.94482,0,1,1,164.20094,57.6875,38.98869,38.98869,0,0,1,125.25558,96.63232Zm0-71.29717A32.35235,32.35235,0,1,0,157.60847,57.6875,32.389,32.389,0,0,0,125.25558,25.33515Z"/><path d="M125.26416,85.39916a27.71166,27.71166,0,1,1,27.7122-27.71166A27.7432,27.7432,0,0,1,125.26416,85.39916Zm0-54.32457A26.61291,26.61291,0,1,0,151.87761,57.6875,26.64372,26.64372,0,0,0,125.26416,31.07459Z"/><path d="M125.26416,83.36208a25.78913,25.78913,0,1,1,25.7894-25.78885A25.81841,25.81841,0,0,1,125.26416,83.36208Zm0-50.4795a24.69038,24.69038,0,1,0,24.69065,24.69065A24.71869,24.71869,0,0,0,125.26416,32.88258Z"/><path d="M139.01106,7.63623H114.1595L120.68587.021H132.4847Zm-22.67773-1h20.50391L132.02474,1.021H121.14583Z"/><polygon points="183.778 96.692 182.778 96.692 182.778 19.025 164.552 19.025 149.39 7.636 115.246 7.636 115.246 6.636 149.724 6.636 164.886 18.025 183.778 18.025 183.778 96.692"/><polygon points="69.371 96.7 70.371 96.7 70.371 19.033 88.597 19.033 103.759 7.644 137.903 7.644 137.903 6.644 103.425 6.644 88.263 18.033 69.371 18.033 69.371 96.7"/><path d="M38.69814,33.14625l-14.2697,63.731H20.07479L6.53048,34.718V96.8772H0V.0105H6.04643L22.25162,78.85822,39.30251.0105h5.8051V96.8772H38.69814Z"/><path d="M57.92028,58.90444H45.82741V96.8772H39.418V58.90444h-.0091V52.858h-.11191V.0105h6.65148V52.858H57.8V.0105h6.52979V96.8772H57.92028Z"/><rect x="69.39192" width="1" height="96.8877" fill="#1d1d1b"/><path d="M125.25558,96.63232A38.94482,38.94482,0,1,1,164.20094,57.6875,38.98869,38.98869,0,0,1,125.25558,96.63232Zm0-71.29717A32.35235,32.35235,0,1,0,157.60847,57.6875,32.389,32.389,0,0,0,125.25558,25.33515Z"/><path d="M125.26416,85.39916a27.71166,27.71166,0,1,1,27.7122-27.71166A27.7432,27.7432,0,0,1,125.26416,85.39916Zm0-54.32457A26.61291,26.61291,0,1,0,151.87761,57.6875,26.64372,26.64372,0,0,0,125.26416,31.07459Z"/><path d="M125.26416,83.36208a25.78913,25.78913,0,1,1,25.7894-25.78885A25.81841,25.81841,0,0,1,125.26416,83.36208Zm0-50.4795a24.69038,24.69038,0,1,0,24.69065,24.69065A24.71869,24.71869,0,0,0,125.26416,32.88258Z"/><path d="M139.01106,7.63623H114.1595L120.68587.021H132.4847Zm-22.67773-1h20.50391L132.02474,1.021H121.14583Z"/><polygon points="183.778 96.692 182.778 96.692 182.778 19.025 164.552 19.025 149.39 7.636 115.246 7.636 115.246 6.636 149.724 6.636 164.886 18.025 183.778 18.025 183.778 96.692"/><polygon points="69.371 96.7 70.371 96.7 70.371 19.033 88.597 19.033 103.759 7.644 137.903 7.644 137.903 6.644 103.425 6.644 88.263 18.033 69.371 18.033 69.371 96.7"/></svg>