<svg id="Ebene_3" data-name="Ebene 3" xmlns="http://www.w3.org/2000/svg" viewBox="0 0 595.28 595.28"><title>logo</title><path d="M243.82672,278.64405,229.557,342.375h-4.35365l-13.54432-62.15918V342.375h-6.53048V245.5083H211.175L227.3802,324.356l17.05089-78.84772h5.8051V342.375h-6.40947Z"/><path d="M263.04887,304.40224H250.956V342.375h-6.40947V304.40224h-.00909v-6.04643h-.11192V245.5083H251.077v52.84751h11.85153V245.5083h6.52979V342.375h-6.40946Z"/><rect x="274.52051" y="245.4978" width="1" height="96.8877" fill="#1d1d1b"/><path d="M330.38416,342.13013a38.94483,38.94483,0,1,1,38.94536-38.94483A38.98869,38.98869,0,0,1,330.38416,342.13013Zm0-71.29718a32.35235,32.35235,0,1,0,32.35289,32.35235A32.389,32.389,0,0,0,330.38416,270.833Z"/><path d="M330.39275,330.897a27.71166,27.71166,0,1,1,27.71219-27.71166A27.7432,27.7432,0,0,1,330.39275,330.897Zm0-54.32457A26.61291,26.61291,0,1,0,357.0062,303.1853,26.64371,26.64371,0,0,0,330.39275,276.57239Z"/><path d="M330.39275,328.85988A25.78912,25.78912,0,1,1,356.18214,303.071,25.8184,25.8184,0,0,1,330.39275,328.85988Zm0-50.4795A24.69038,24.69038,0,1,0,355.08339,303.071,24.71869,24.71869,0,0,0,330.39275,278.38038Z"/><path d="M344.13965,253.134H319.28809l6.52636-7.61523h11.79883Zm-22.67774-1h20.50391l-4.8125-5.61523H326.27441Z"/><polygon points="388.906 342.19 387.906 342.19 387.906 264.523 369.681 264.523 354.519 253.134 320.375 253.134 320.375 252.134 354.853 252.134 370.015 263.523 388.906 263.523 388.906 342.19"/><polygon points="274.5 342.198 275.5 342.198 275.5 264.531 293.726 264.531 308.888 253.142 343.031 253.142 343.031 252.142 308.554 252.142 293.392 263.531 274.5 263.531 274.5 342.198"/></svg>