<svg id="logo-large" xmlns="http://www.w3.org/2000/svg" viewBox="0 0 393.55859 103.41724">
    <title>logo</title>
    <path fill="currentColor" d="M27.85986,23.83789,17.66845,69.35449H14.55907l-9.67334-44.394v44.394H.22167V.17236H4.54l11.57373,56.313L28.2915.17236h4.146V69.35449H27.85986Z"/>
    <path fill="currentColor" d="M51.95605,42.23438H43.66454V69.35449h-4.75V42.23438h-4.146V37.916h4.146V7.773a6.36963,6.36963,0,0,1,2.332-5.355A10.33645,10.33645,0,0,1,46.4287.25879a5.39444,5.39444,0,0,0,.69092-.043,5.63907,5.63907,0,0,1,.69092-.04346A10.6814,10.6814,0,0,1,49.106.25879a6.108,6.108,0,0,1,1.38184.3457,9.55594,9.55594,0,0,1,4.23242,2.41846,6.27174,6.27174,0,0,1,1.8999,4.75V69.35449H51.95605ZM51.22216,6.00244a4.59441,4.59441,0,0,0-1.68408-1.07959,2.79908,2.79908,0,0,0-.8208-.34521,3.41986,3.41986,0,0,0-.73389-.08643h-.38867a.86.86,0,0,0-.38867.08643,6.11884,6.11884,0,0,0-2.41846.86328,2.43562,2.43562,0,0,0-1.123,2.2456V37.916h8.29151V7.68652A2.32178,2.32178,0,0,0,51.22216,6.00244Z"/>
    <path fill="currentColor" d="M64.39306,26.51514V69.35449H59.64257V.17236h4.40479l8.63671,44.39405V.17236h4.66407V69.26807l-4.57764.08642Z"/>
    <path fill="currentColor" d="M88.748,69.52734a10.38152,10.38152,0,0,1-6.26172-2.11621A6.82377,6.82377,0,0,1,79.852,61.66748V.17236h4.57764V61.66748a3.02519,3.02519,0,0,0,1.12256,2.41846,4.70809,4.70809,0,0,0,2.50488,1.12256.68711.68711,0,0,0,.30225.08642h.56152a5.20531,5.20531,0,0,0,2.8501-1.03613,2.96133,2.96133,0,0,0,1.29541-2.50488V.17236H97.644V61.75391A6.203,6.203,0,0,1,95.65771,66.418a11.492,11.492,0,0,1-4.31836,2.67724c-.46192.05811-.90723.1294-1.33887.21583a6.38451,6.38451,0,0,1-1.25244.12988Z"/>
    <path fill="currentColor" d="M103.602,42.23438H99.37011V37.916h4.146V.17236h16.2373V4.57764h-11.4873V37.916h11.83252v4.31836H108.26611V65.12207h11.83252v4.23242H103.602Z"/>
    <path fill="currentColor" d="M122.25683.17236h4.57764V65.12207h11.40039v4.23242h-15.978Z"/>
    <path fill="currentColor" d="M170.62157,42.23438h-8.63671V69.35449h-4.57764V42.23438h-3.541V37.916h3.45459V.17236h4.75049V37.916h8.46436V.17236h4.66357V69.35449h-4.57764Z"/>
    <path fill="currentColor" d="M194.89062,42.23438h-8.29151V69.35449h-4.75V42.23438h-4.146V37.916h4.146V7.773a6.36963,6.36963,0,0,1,2.332-5.355A10.33645,10.33645,0,0,1,189.36327.25879a5.39444,5.39444,0,0,0,.69092-.043,5.63907,5.63907,0,0,1,.69092-.04346,10.6814,10.6814,0,0,1,1.29541.08643,6.108,6.108,0,0,1,1.38184.3457,9.55486,9.55486,0,0,1,4.23291,2.41846,6.27138,6.27138,0,0,1,1.89941,4.75V69.35449h-4.66406Zm-.73389-36.23194a4.59441,4.59441,0,0,0-1.68408-1.07959,2.799,2.799,0,0,0-.8208-.34521,3.41986,3.41986,0,0,0-.73389-.08643h-.38867a.86.86,0,0,0-.38867.08643,6.11884,6.11884,0,0,0-2.41846.86328,2.43562,2.43562,0,0,0-1.12305,2.2456V37.916h8.29151V7.68652A2.32178,2.32178,0,0,0,194.15673,6.00244Z"/>
    <path fill="currentColor" d="M228.66015,7.68652A2.82538,2.82538,0,0,0,227.53808,5.398a5.06266,5.06266,0,0,0-2.67774-1.07959h-.43164a4.001,4.001,0,0,0-2.59082.90674,2.9061,2.9061,0,0,0-1.123,2.375V69.18164h-4.83692V7.51416a2.62008,2.62008,0,0,0-1.46777-2.332,6.91079,6.91079,0,0,0-3.19629-.9502,3.61785,3.61785,0,0,0-2.46094.9502,2.98847,2.98847,0,0,0-1.08008,2.332V69.18164h-4.75V7.51416a6.70889,6.70889,0,0,1,2.54786-5.39844A8.98444,8.98444,0,0,1,211.38671,0a11.965,11.965,0,0,1,3.80078.60449,7.825,7.825,0,0,1,3.1084,1.8999A8.5438,8.5438,0,0,1,220.19628,1.209a14.1153,14.1153,0,0,1,2.15918-.86377A11.705,11.705,0,0,1,223.7373.08643,10.57189,10.57189,0,0,1,225.0332,0a8.94265,8.94265,0,0,1,5.83007,2.332,6.83268,6.83268,0,0,1,2.54786,5.26807V69.18164h-4.751Z"/>
    <path fill="currentColor" d="M239.37011,42.23438h-4.23145V37.916h4.14551V.17236h16.23731V4.57764H244.03417V37.916h11.833v4.31836h-11.833V65.12207h11.833v4.23242H239.37011Z"/>
    <path fill="currentColor" d="M258.02441.17236h4.57812V65.12207h11.40039v4.23242H258.02441Z"/>
    <path fill="currentColor" d="M74.30982,97.08813V79.36743h7.79687c8.48047.02539,8.48047,13.18945,0,13.18945H78.84107v4.53125ZM82.0813,83.41821c-1.063-.02539-2.20215,0-3.24023,0v5.0625H82.0813C84.56226,88.48071,84.71412,83.4436,82.0813,83.41821Z"/>
    <path fill="currentColor" d="M106.63794,97.08813h-4.63232V89.97485H96.53736v7.11328H91.905V79.36743h4.63233V85.7981h5.46826V79.36743h4.63232Z"/>
    <path fill="currentColor" d="M110.08277,88.25317c0-12.25195,18.17578-12.25195,18.17578,0C128.25855,100.53052,110.08277,100.53052,110.08277,88.25317Zm13.543,0a4.45482,4.45482,0,1,0-8.88526,0A4.45482,4.45482,0,1,0,123.62574,88.25317Z"/>
    <path fill="currentColor" d="M129.9314,83.41821V79.36743H143.095v4.05078h-4.3291V97.08813H134.2854V83.41821Z"/>
    <path fill="currentColor" d="M144.81812,88.25317c0-12.25195,18.17578-12.25195,18.17578,0C162.9939,100.53052,144.81812,100.53052,144.81812,88.25317Zm13.543,0a4.45482,4.45482,0,1,0-8.88526,0A4.45482,4.45482,0,1,0,158.36109,88.25317Z"/>
    <path fill="currentColor" d="M174.41285,79.13989c3.56933.02539,7.29052,1.87305,8.15087,6.27832h-4.45507a3.62529,3.62529,0,0,0-3.6958-2.127c-2.86084,0-4.40479,2.22754-4.40479,4.93652,0,2.93653,1.72119,4.86035,4.40479,4.86035,1.82226,0,2.98681-.48046,3.79687-2.17675h-3.77148V86.98755h8.3789a12.89682,12.89682,0,0,1-.50635,5.18945c-1.26562,3.69531-4.63232,5.11328-7.89794,5.11328-4.50586,0-9.0625-3.01269-9.0879-9.0625A8.76954,8.76954,0,0,1,174.41285,79.13989Z"/>
    <path fill="currentColor" d="M201.37476,96.42993v.6582h-5.063l-3.0376-5.21484h-2.35449v5.21484h-4.53125V79.36743h7.77149c6.96142.02539,8.227,8.4043,3.74658,11.44238Zm-7.21484-13.01172c-1.063-.02539-2.17676,0-3.24024,0v4.37891h3.24024C196.61548,87.79712,196.742,83.4436,194.15992,83.41821Z"/>
    <path fill="currentColor" d="M215.12134,94.8606H208.135l-1.03808,2.22753h-4.42969v-.6582l7.97363-17.29h1.94922l8,17.29v.6582h-4.43066ZM211.60279,86.304l-1.97461,4.6582h4Z"/>
    <path fill="currentColor" d="M222.92017,97.08813V79.36743H230.717c8.48047.02539,8.48047,13.18945,0,13.18945h-3.26562v4.53125Zm7.77148-13.66992c-1.06347-.02539-2.20214,0-3.24023,0v5.0625h3.24023C233.17212,88.48071,233.32447,83.4436,230.69165,83.41821Z"/>
    <path fill="currentColor" d="M255.24829,97.08813h-4.63183V89.97485h-5.46777v7.11328h-4.63282V79.36743h4.63282V85.7981h5.46777V79.36743h4.63183Z"/>
    <path fill="currentColor" d="M268.18579,97.08813h-4.48046V89.64575L257.75611,80.051v-.6836h4.88574l3.21484,5.89844h.17774l3.21484-5.89844h4.91113v.6836l-5.97461,9.59472Z"/>
    <polygon fill="currentColor" points="69.909 89.229 67.063 87.221 0 89.229 67.063 91.232 69.909 89.229"/>
    <rect fill="currentColor" x="279.17284" y="0.2002" width="1" height="96.8877"/>
    <path fill="currentColor" d="M335.0365,96.83252A38.94483,38.94483,0,1,1,373.98186,57.8877,38.98869,38.98869,0,0,1,335.0365,96.83252Zm0-71.29718A32.35236,32.35236,0,1,0,367.38939,57.8877,32.389,32.389,0,0,0,335.0365,25.53534Z"/>
    <path fill="currentColor" d="M335.04508,85.59935a27.71166,27.71166,0,1,1,27.7122-27.71165A27.7432,27.7432,0,0,1,335.04508,85.59935Zm0-54.32457A26.61292,26.61292,0,1,0,361.65853,57.8877,26.64372,26.64372,0,0,0,335.04508,31.27478Z"/>
    <path fill="currentColor" d="M335.04508,83.56228a25.78913,25.78913,0,1,1,25.7894-25.78886A25.81842,25.81842,0,0,1,335.04508,83.56228Zm0-50.4795a24.69038,24.69038,0,1,0,24.69065,24.69064A24.71869,24.71869,0,0,0,335.04508,33.08278Z"/>
    <path fill="currentColor" d="M348.792,7.83643H323.94042L330.46679.22119h11.79883Zm-22.67773-1h20.50391l-4.8125-5.61524H330.92675Z"/>
    <polygon fill="currentColor" points="393.559 96.892 392.559 96.892 392.559 19.225 374.333 19.225 359.171 7.836 325.027 7.836 325.027 6.836 359.505 6.836 374.667 18.225 393.559 18.225 393.559 96.892"/>
    <polygon fill="currentColor" points="279.152 96.9 280.152 96.9 280.152 19.233 298.378 19.233 313.54 7.844 347.684 7.844 347.684 6.844 313.206 6.844 298.044 18.233 279.152 18.233 279.152 96.9"/>
</svg>
